PathFileType	4	(X/Y/Z)	Kaydara	
DataRate	CameraRate	NumFrames	NumMarkers	Units	OrigDataRate	OrigDataStartFrame	OrigNumFrames	
240.00	240.00	4	72	mm	240.00	315	359	
Frame#	Time	Hips			RightUpLeg			RightLeg			RightFoot			RightFoot_End			LeftUpLeg			LeftLeg			LeftFoot			LeftFoot_End			Spine			Spine1			Spine2			Spine3			Neck			Head			Head_End			RightShoulder			RightArm			RightForeArm			RightHand			RightHandThumb1			RightHandThumb2			RightHandThumb3			RightHandThumb3_End			RightInHandIndex			RightHandIndex1			RightHandIndex2			RightHandIndex3			RightHandIndex3_End			RightInHandMiddle			RightHandMiddle1			RightHandMiddle2			RightHandMiddle3			RightHandMiddle3_End			RightInHandRing			RightHandRing1			RightHandRing2			RightHandRing3			RightHandRing3_End			RightInHandPinky			RightHandPinky1			RightHandPinky2			RightHandPinky3			RightHandPinky3_End			LeftShoulder			LeftArm			LeftForeArm			LeftHand			LeftHandThumb1			LeftHandThumb2			LeftHandThumb3			LeftHandThumb3_End			LeftInHandIndex			LeftHandIndex1			LeftHandIndex2			LeftHandIndex3			LeftHandIndex3_End			LeftInHandMiddle			LeftHandMiddle1			LeftHandMiddle2			LeftHandMiddle3			LeftHandMiddle3_End			LeftInHandRing			LeftHandRing1			LeftHandRing2			LeftHandRing3			LeftHandRing3_End			LeftInHandPinky			LeftHandPinky1			LeftHandPinky2			LeftHandPinky3			LeftHandPinky3_End			
		X1	Y1	Z1	X2	Y2	Z2	X3	Y3	Z3	X4	Y4	Z4	X5	Y5	Z5	X6	Y6	Z6	X7	Y7	Z7	X8	Y8	Z8	X9	Y9	Z9	X10	Y10	Z10	X11	Y11	Z11	X12	Y12	Z12	X13	Y13	Z13	X14	Y14	Z14	X15	Y15	Z15	X16	Y16	Z16	X17	Y17	Z17	X18	Y18	Z18	X19	Y19	Z19	X20	Y20	Z20	X21	Y21	Z21	X22	Y22	Z22	X23	Y23	Z23	X24	Y24	Z24	X25	Y25	Z25	X26	Y26	Z26	X27	Y27	Z27	X28	Y28	Z28	X29	Y29	Z29	X30	Y30	Z30	X31	Y31	Z31	X32	Y32	Z32	X33	Y33	Z33	X34	Y34	Z34	X35	Y35	Z35	X36	Y36	Z36	X37	Y37	Z37	X38	Y38	Z38	X39	Y39	Z39	X40	Y40	Z40	X41	Y41	Z41	X42	Y42	Z42	X43	Y43	Z43	X44	Y44	Z44	X45	Y45	Z45	X46	Y46	Z46	X47	Y47	Z47	X48	Y48	Z48	X49	Y49	Z49	X50	Y50	Z50	X51	Y51	Z51	X52	Y52	Z52	X53	Y53	Z53	X54	Y54	Z54	X55	Y55	Z55	X56	Y56	Z56	X57	Y57	Z57	X58	Y58	Z58	X59	Y59	Z59	X60	Y60	Z60	X61	Y61	Z61	X62	Y62	Z62	X63	Y63	Z63	X64	Y64	Z64	X65	Y65	Z65	X66	Y66	Z66	X67	Y67	Z67	X68	Y68	Z68	X69	Y69	Z69	X70	Y70	Z70	X71	Y71	Z71	X72	Y72	Z72	

315	1.308	7198.941	914.58397	126.699	7242.03560540979	884.3271066179196	50.40217008577682	7144.266783922176	490.8023411605499	-54.68174722117069	7143.376874586335	99.84891066947283	-133.56540046714022	6992.395379235915	22.75843330863248	-45.24800512056247	7168.764955851934	918.4087535418339	215.3175214967785	7077.710188797292	515.4194422739242	283.90111971571406	6994.2753823704625	89.63812162429524	355.45492307807586	6873.981659901068	6.189134302768165	232.56093578627505	7139.037261377023	1033.8437030775283	75.18384239442098	7079.505271000882	1089.4536093771055	22.254485206860807	7014.269960335028	1140.5325376619414	-35.830665174778645	6947.535074475004	1178.9539140015509	-95.09979214772703	6875.087900644498	1220.3554533983886	-156.8737345813124	6807.815981323672	1258.9122563067651	-210.73162865066263	6674.563929852133	1342.8057936842902	-233.7105159008633	6910.007724319352	1191.1738558438929	-159.0454201186568	6913.237835166365	1104.5487687270834	-235.468368495059	6883.897552961268	944.4523577284172	-76.378970956384	6794.937861317364	821.3873280603494	-13.138292751013779	6791.695628629161	832.7299252639878	-3.7841702623652793	6791.665253267093	831.6278211210831	8.040991621181945	6791.602539804805	827.314337059476	16.377636285057008	6791.514703876298	820.6848821902722	23.414455258839723	6790.845748505514	821.2685212254328	-2.6076357695836236	6786.184991358235	807.0279644606308	14.062091714813619	6785.096482153023	795.999926090882	25.907798922446887	6785.998110787156	792.5236498058695	32.03059750760633	6787.809037620802	791.926153544607	36.26088638191419	6790.997357914601	812.0665483157995	-2.8998417281453897	6786.532786461784	793.1997052394577	13.201182974926155	6785.382820960741	779.9965342136821	26.034886440467176	6786.488753951859	775.2413946851306	33.37750956821765	6788.479059517244	774.3148335413819	37.984674055342964	6791.200325136782	805.9140887651006	-3.5301782206683754	6787.30784090037	783.6219538154706	10.356738537130752	6786.351467930159	770.9486858663638	21.42288894179876	6787.442628965767	765.7431251145854	28.44183419432551	6789.32558271734	764.5786699084507	32.743588683931534	6791.75109882531	799.3511083812285	-4.751365381033111	6788.441537651858	774.8050456491113	7.243162290399823	6787.764526936308	762.9360304577116	15.857128623974546	6788.60338863032	758.3066962083825	20.857102892004434	6790.296107199493	756.7961370071099	24.59888349290935	6888.6203627202385	1222.602491003523	-112.72987434313266	6869.764097494131	1257.4775315819925	-6.868894579113571	6899.512829131819	1044.1861340778785	23.996240316436456	6833.026584515942	851.8425808328736	1.3225401491953335	6821.533530226307	858.3250670997515	-1.7564038458556581	6814.504608748413	848.1185850862194	-11.242334167840454	6809.893450936635	837.6890358094075	-17.32044506583952	6806.292099410925	826.1527011244596	-21.935907280038975	6820.930657874792	847.6483728356584	0.6436146693611136	6805.947222350636	826.1622794089183	-1.8584435560789245	6798.541902707012	807.8121106013957	-7.820305426895487	6796.528116505617	798.9117799874007	-14.079392623753193	6796.608408346991	793.2366758101377	-20.981845711886223	6822.367639486106	839.2000727874672	1.9658650450717232	6808.529650099189	813.6744634833968	0.24184361614013028	6800.690955466436	792.6014933888375	-6.086421289699871	6798.377524450757	781.3600610698691	-13.552700534316273	6798.521833949659	774.9056924111874	-21.06387671929747	6823.7334125501575	833.7881513620015	3.009692881186538	6812.424337451968	806.2390777699743	2.504771324017838	6805.861593222059	786.839456738901	-2.827526300849229	6803.773225477422	775.4479743336225	-9.931933620086113	6803.976738237272	769.1194523853027	-16.948171957198937	6825.992200823235	828.1060318757557	3.92437871265804	6816.900549575141	799.3568069718814	4.178072876576238	6812.115333902964	782.3318146165093	0.19621758616747798	6810.819419299054	773.3018163670457	-4.846425990710742	6811.130541417282	767.280832067405	-10.981479893351008
316	1.313	7198.941	914.58397	126.699	7241.964343119487	884.2522009008995	50.38624575016711	7144.182668626621	490.7432905750885	-54.746188900669715	7143.39827201127	99.79314612663214	-133.6500282275814	6992.419019183003	22.698574029054964	-45.3323705419034	7168.828847426333	918.483012156876	215.34015094940176	7077.782755286465	515.4865307385533	283.8939402215678	6994.296253719073	89.69531770832198	355.33663692894277	6874.009832188738	6.238833630719002	232.44056253383653	7139.073340527487	1033.8501711389524	75.15490336135623	7079.547594528028	1089.4515229111303	22.20888710937402	7014.314944869018	1140.521945468488	-35.88707312990863	6947.576089941727	1178.9398500376042	-95.15395506488088	6875.125407558434	1220.3374363186472	-156.9264234308947	6807.853198480163	1258.8938486885172	-210.78428558272756	6674.639607832451	1342.8331448718927	-233.84237816768675	6909.9899636822	1191.0651191328507	-159.0938331784436	6912.884018086738	1104.0452089937908	-235.3367514620318	6883.012685841651	944.4746480502073	-75.21265511617636	6793.512740374548	821.3329684924228	-10.316160422938111	6790.213333077447	832.6375552874107	-0.7687284531312173	6790.265575865582	831.4699148485956	11.28725734806352	6790.259773659487	827.1107470650343	19.79004312552746	6790.21884833695	820.4431698212908	26.969982292349073	6789.340370873901	821.1746166814924	0.4465068756989865	6784.622209212625	806.8643140227962	17.483792982692876	6783.577077171816	795.7764613135795	29.57660884461916	6784.556373385896	792.2622559875144	35.815356347812894	6786.465784392196	791.6328650463188	40.11620080888184	6789.496241588033	811.9744149685566	0.1557697453014839	6784.977960668978	793.0405051096974	16.616097015225876	6783.876180820712	779.7725105905631	29.718435931618103	6785.0762261645405	774.9718250311956	37.200462708542545	6787.174490235553	774.0104693192551	41.88459226919281	6789.702822700211	805.8250869250912	-0.4827120357349486	6785.762820416145	783.475858724017	13.719715789672108	6784.849411814392	770.7466506576397	25.0184098470113	6786.031864559187	765.4974546916045	32.17097121631497	6788.0165696203785	764.3004248441365	36.5446895134242	6790.266211917074	799.2669458750448	-1.7254836366277857	6786.917935319063	774.6718151750318	10.545900236601	6786.277048856228	762.7591275719764	19.342205380559307	6787.1833311192695	758.0985085238788	24.437766034078777	6788.9666636459115	756.5594059347485	28.242216496514573	6888.717949637415	1222.680133430306	-112.78924638995792	6870.064638971659	1258.0765090652671	-6.895296255543838	6899.337076567609	1044.4778344547244	25.153781627586397	6831.952183451064	851.6484156189626	3.5582523869018132	6820.235309048098	858.1178342280525	0.5485904357923914	6812.9525011844025	847.9229828735973	-8.941027463235713	6808.170970673814	837.4984322416996	-15.010498831871303	6804.433090752972	825.9636119126991	-19.60917087153156	6819.636268665337	847.4249404250098	3.0079134796276037	6804.334841669906	825.8994412713832	0.6886249103370972	6796.701267583396	807.5425992428951	-5.214269007934718	6794.561187409774	798.6550929670317	-11.497454716118511	6794.547476372515	793.0020523655104	-18.46083789059324	6821.1014861463	838.9705640697082	4.351042507782779	6806.9686122196945	813.4032270095906	2.8166018414939913	6798.885595013341	792.3223270673622	-3.445240451945182	6796.4220736492325	781.0960559502528	-10.939597245695438	6796.464634734393	774.6656776931471	-18.516957618540744	6822.495371979738	833.5551165052731	5.405759469862431	6810.9465701823565	805.9648868927449	5.082540161293309	6804.176191036693	786.5577602568794	-0.19004816489737664	6801.94587319994	775.1805866348908	-7.320574730679681	6802.055055057291	768.874472280089	-14.398586243213543	6824.795384429523	827.8719557506439	6.321379933816274	6815.5093352182075	799.0835268438734	6.7450578283336995	6810.567194226211	782.0517789076596	2.8130489546290676	6809.172259209578	773.0318569754763	-2.2476624768349325	6809.402419991168	767.0305146705169	-8.436871277043252
317	1.317	7198.941	914.58397	126.699	7241.893397319145	884.1776282135023	50.37039547094893	7144.098953788207	490.6844870608716	-54.810303172781055	7143.419670839925	99.7376160870777	-133.73425131141482	6992.442638660577	22.63894990880719	-45.41636845602152	7168.892467083371	918.5569495797688	215.36268256296012	7077.855070780399	515.5533231066046	283.8868333509496	6994.317191846311	89.75224654642801	355.21891545082735	6874.038036929688	6.288289931275502	232.3207712865329	7139.109206657904	1033.8565703391232	75.12606599651929	7079.58960851518	1089.449369690047	22.163506332018855	7014.359523858551	1140.5112782046688	-35.943159006590136	6947.6166191817265	1178.925665652091	-95.20772977763836	6875.162345257994	1220.3192558892808	-156.9786506701675	6807.889764197851	1258.8752275943034	-210.83640872663224	6674.714490355209	1342.860139832863	-233.97327585732762	6909.971906995503	1190.95667422341	-159.14185680740226	6912.531340542973	1103.5440050334357	-235.20585155203062	6882.132080580755	944.496729073764	-74.05211723036189	6792.094403072026	821.277935373839	-7.506262189011551	6788.738094926468	832.5444432281863	2.233478986227084	6788.872525756746	831.3112911731578	14.519290811833372	6788.923325906543	826.9064679007231	23.187541358637418	6788.929045654875	820.2008012687569	30.510052781668605	6787.842115951671	821.0799965244641	3.4873781690633905	6783.066713595815	806.6999542849785	20.89075790139657	6782.064678562543	795.5523281655542	33.229726187322285	6783.1212467517125	792.0002298109702	39.58396138236509	6785.128665126264	791.3389811249062	43.95506956282827	6788.002198041144	811.8815975685959	3.198214422470727	6783.43034054578	792.8806441454869	20.016471881205064	6782.376433031626	779.547874984493	33.386421437740296	6783.670109792109	774.7016888524755	41.007304350419815	6785.875808882228	773.7055799634503	45.76808397440573	6788.21235756119	805.7354228711814	2.5516977934646548	6784.224937150078	783.3291403140429	17.068500255421895	6783.354211793599	770.5440389583557	28.598865947027548	6784.627488079884	765.2512538824315	35.88452657715163	6786.713450219283	764.0216893808662	40.32991783083355	6788.788285362631	799.182148486263	1.28751788300292	6785.401350937359	774.5380013462766	13.834821015301827	6784.796350616065	762.5816852908167	22.812804741988458	6785.769705677013	757.8898181981574	28.003593191320647	6787.643210733798	756.3222094421527	31.870466462305558	6888.814738515417	1222.7571753560298	-112.84812665889572	6870.363611975714	1258.6722252061743	-6.921298102162961	6899.162974724654	1044.767778507673	26.30657173507592	6830.883619958299	851.454466187932	5.784222180492492	6818.943948412173	857.910986387036	2.8433927477047405	6811.408394535055	847.7278728090803	-6.649892168157464	6806.457252859423	837.3083917511477	-12.710733274993999	6802.583451494163	825.7751417711046	-17.29264304293315	6818.348711852359	847.2019035703659	5.361829653432125	6802.730714705098	825.6372245587127	3.224525848468687	6794.869902311795	807.2738229890947	-2.619599790367289	6792.604091022341	798.3991733082086	-8.92673781575104	6792.496796524173	792.7681970673873	-15.950747725250295	6819.842028292137	838.7414310035076	6.725816974890137	6805.415582075268	813.1325757391605	5.3801804001981	6797.0893284603235	792.0438665832361	-0.8154568714716959	6794.476384948019	780.8327939465771	-8.337714695357676	6794.417651256305	774.426406153658	-15.98092726592273	6821.263893692694	833.3224379365633	7.791424879329469	6809.476425004683	805.6912246484887	7.6492021410037125	6802.499332440887	786.2766937287423	2.436135025870499	6800.127695657257	774.9138628173229	-4.720339688052263	6800.142966801149	768.6301551524518	-11.859811827123195	6823.604937233784	827.6382034074012	8.708034972392	6814.125342844125	798.8107101570494	9.301070156863744	6809.026970486295	781.7722810529333	5.418762634003116	6807.533454158136	772.7624569335384	0.3401108313849477	6807.683013587501	766.7807539516348	-5.90297445441567
318	1.321	7198.941	914.58397	126.699	7241.822775589529	884.1033965965114	50.35462091133389	7144.015648359904	490.6259370549727	-54.87408354593017	7143.441068391369	99.68232664464651	-133.8180610772333	6992.466234797248	22.5795675665804	-45.49999008783967	7168.955807977983	918.6305577917699	215.38511391356067	7077.927127228322	515.6198121413825	283.87979959451667	6994.338193891937	89.80890200369302	355.1017709311059	6874.066270492972	6.337497905623698	232.20157452160194	7139.144856146015	1033.8629001960157	75.09733359101664	7079.631309011229	1089.447150398417	22.11834782004953	7014.403693467819	1140.5005377559382	-35.99891690999805	6947.656659222513	1178.911363411376	-95.26111094544132	6875.198711583648	1220.3009154091687	-157.030411443162	6807.925676713538	1258.8563966267168	-210.88799352040155	6674.788571313347	1342.8867769119665	-234.1031960366902	6909.953557973019	1190.8485339939784	-159.18948643523052	6912.179842885473	1103.045211038187	-235.07568266387423	6881.255831319336	944.5185985035475	-72.8974811963844	6790.683000663902	821.2222376867653	-4.7089050731069335	6787.270071684819	832.4506029551503	5.222123745945055	6787.486251337161	831.151972023262	17.736738128345678	6787.5933386743745	826.7015270867822	26.569758646021512	6787.645432799219	819.9578086965481	34.03427845283687	6786.351143816231	820.9846747527373	6.514645357759576	6781.518670918592	806.5349078888095	24.28261278982859	6780.559447970016	795.3275566041053	36.86674975253197	6781.692883976587	791.7376058421246	43.33599853642556	6783.797822065302	791.0445402015523	47.777070764350924	6786.515386905499	811.7881098181978	6.2271592688641135	6781.890091662612	792.7201443189291	23.401934465417924	6780.883737872447	779.3226572849419	37.03843992173029	6782.270554751245	774.4310215671075	44.797615967805655	6784.583153481229	773.4002050952238	49.634722127916916	6786.729088969598	805.6451098642633	5.57271905564906	6782.694355620805	783.1818188406801	20.402724459522062	6781.8660276711125	770.340877844617	32.163863842516776	6783.229649281107	765.0045550536144	39.58209202340578	6785.416363059155	763.7424998170852	44.098857415446844	6787.317477040765	799.096728808232	4.287309275651211	6783.891946693257	774.4036227235118	17.109563716730605	6783.322590441738	762.4037274819153	26.268545446320474	6784.362663109522	757.6806528828121	31.55419246411833	6786.32588928909	756.0845786207979	35.4832345463152	6888.91072051162	1222.8336097643348	-112.90650953215335	6870.660985120958	1259.2646179816438	-6.946898140212666	6898.9905391685015	1045.055936881642	27.454483814980478	6829.821005380047	851.2607557907613	8.000207898235487	6817.659584327169	857.7045476355817	5.1277539565213885	6809.872452683082	847.5332768979158	-4.369176910758881	6804.752480042418	837.1189353272352	-10.42139789758886	6800.743379107146	825.5873111968583	-14.986575074287686	6817.068122890179	846.9792883471403	7.705107575810985	6801.135011628339	825.3756592206983	5.748983781535685	6793.048002003592	807.0058120451487	-0.036579603961172324	6790.657036300164	798.1440493968802	-6.367521062450862	6790.456588099472	792.5351354617621	-13.451847650540202	6818.589398179599	838.5127005404763	9.089930543070665	6803.870724054391	812.862540877297	7.93230077640348	6795.302346875899	791.7661435203001	1.8026437753059952	6792.540665863585	780.5703044958555	-5.747335423848426	6792.381102221922	774.1879041456319	-13.456060918596222	6820.039106793568	833.0901431559103	10.166430008574821	6808.014057067754	805.4181229080709	10.20447839261817	6800.831195241841	785.9962894505779	5.05073795996887	6798.318886205403	774.6478331567671	-2.131510884973551	6798.240677196355	768.3865284023592	-9.33212430373112	6822.420983748811	827.4048026432612	11.084084614089136	6812.748718014039	798.5383889968513	11.845832144501259	6807.494825344969	781.4933536075108	8.013075524134706	6805.903177643135	772.4936473853597	2.916612853967024	6805.972504601654	766.5315785433002	-3.380064546143217
